Coordinates
version=1
nRows=13
nColumns=36
inDegrees=yes

Units are S.I. units (second, meters, Newtons, ...)
If the header above contains a line with 'inDegrees', this indicates whether rotational values are in degrees (yes) or radians (no).

endheader
time	pelvis_tilt	pelvis_list	pelvis_rotation	pelvis_tx	pelvis_ty	pelvis_tz	hip_flexion_r	hip_adduction_r	hip_rotation_r	knee_angle_r	knee_angle_r_beta	ankle_angle_r	subtalar_angle_r	mtp_angle_r	hip_flexion_l	hip_adduction_l	hip_rotation_l	knee_angle_l	knee_angle_l_beta	ankle_angle_l	subtalar_angle_l	mtp_angle_l	lumbar_extension	lumbar_bending	lumbar_rotation	arm_flex_r	arm_add_r	arm_rot_r	elbow_flex_r	pro_sup_r	arm_flex_l	arm_add_l	arm_rot_l	elbow_flex_l	pro_sup_l
      2.93333330	     -4.68029147	      0.11545108	     -0.57082420	     -0.11736550	      0.87816757	      0.10099992	      7.22296806	     -5.54849103	    -17.21848610	      5.87386972	      0.10251837	      2.02773832	     -3.61279373	     -7.49999987	      6.13171809	     -7.29306106	    -18.64518118	      5.49073903	      0.09583147	      7.57356823	      0.52623496	     -7.49999987	      0.91885183	     -1.10587251	     -0.37443495	     38.09938807	      6.85566595	     56.54056211	    136.71969903	    102.37816761	     46.69442810	      9.60118982	     60.46994090	    125.13455855	     88.56495540
      2.95000000	     -4.77439639	      0.11836017	     -0.43143765	     -0.11925391	      0.88046007	      0.10030411	      7.37555517	     -5.57606504	    -17.25252088	      5.78279192	      0.10092876	      1.82531149	     -3.65242076	     -7.49999987	      6.37757112	     -7.24206228	    -18.44248567	      5.50479358	      0.09607677	      7.39132195	      0.38744502	     -7.49999987	      0.95680810	     -1.07107026	     -0.08218947	     38.87818950	      6.70691305	     56.38647359	    136.26142925	    100.75550951	     47.46047534	      9.65932119	     61.29043433	    125.39483438	     87.17763274
      2.96666670	     -4.84903545	      0.11539826	     -0.29541281	     -0.11897127	      0.87900832	      0.10008669	      7.48670320	     -5.60290913	    -17.45063197	      5.73125829	      0.10002933	      1.71261535	     -3.56995426	     -7.49999987	      6.57798461	     -7.21276320	    -18.38747594	      5.55855173	      0.09701503	      7.27047579	      0.42461030	     -7.49999987	      1.02941666	     -1.03862606	      0.15825863	     39.77137270	      6.71102883	     56.69797654	    136.27169757	    102.56266086	     48.18864264	      9.79715056	     61.87704581	    125.64527688	     88.32861221
      2.98333330	     -4.96234658	      0.12160943	     -0.15780192	     -0.12050503	      0.87882416	      0.09888677	      7.68894301	     -5.66642214	    -17.66212038	      5.77426562	      0.10077995	      1.56896760	     -3.63183031	     -7.49999987	      6.85275905	     -7.16167478	    -18.24540595	      5.67098562	      0.09897737	      7.21324866	      0.29372330	     -7.49999987	      1.06493342	     -1.00934256	      0.20619706	     40.51932650	      6.71069401	     57.07456122	    136.09551756	    102.35982734	     49.07866657	      9.72424311	     62.08594780	    125.81059500	     88.67987266
      3.00000000	     -5.05623519	      0.12188696	     -0.13193700	     -0.12110956	      0.87795921	      0.09891495	      7.86698501	     -5.71187070	    -17.84774066	      5.80782092	      0.10136560	      1.32201986	     -3.59736052	     -7.49999987	      7.02335511	     -7.12734475	    -18.37169620	      5.65232919	      0.09865175	      7.10984041	      0.31603762	     -7.49999987	      1.06114695	     -0.97621331	      0.35874828	     41.27785275	      6.77155128	     57.33756685	    135.93556130	    101.56109853	     49.85237845	      9.80657563	     62.40380973	    126.00333961	     87.90735546
      3.01666670	     -5.23398624	      0.14968799	     -0.13579346	     -0.12372556	      0.87851586	      0.09823539	      8.20087032	     -5.79806077	    -17.98166528	      5.92956270	      0.10349039	      1.13297146	     -3.75739571	     -7.49999987	      7.37956903	     -7.06096571	    -18.30594742	      5.76870341	      0.10068287	      7.05009385	      0.04875542	     -7.49999987	      1.11446685	     -0.94525852	      0.52260169	     41.90222214	      6.71299526	     57.63432271	    135.95598881	     99.25570569	     50.50396197	      9.73239553	     62.78966106	    126.21456947	     85.64513902
      3.03333330	     -5.38610728	      0.14980244	     -0.10908676	     -0.12369382	      0.87933159	      0.09799381	      8.43040989	     -5.84785591	    -18.16011922	      5.96598427	      0.10412607	      1.07158906	     -3.52915322	     -7.49999987	      7.64979472	     -7.03126275	    -18.21624584	      5.79768919	      0.10118877	      6.96255203	     -0.09069454	     -7.49999987	      1.02377381	     -0.92739974	      0.57976707	     42.29690104	      6.62936235	     57.84266922	    135.57269552	    101.90674413	     50.82515229	      9.66152894	     62.87755646	    126.25652816	     87.73575999
      3.05000000	     -5.61770665	      0.17258267	     -0.12427193	     -0.12537874	      0.88235476	      0.09809072	      8.75082439	     -5.89594527	    -18.31605824	      5.95618957	      0.10395512	      1.00830769	     -3.15632179	     -7.49999987	      7.95443071	     -6.97121809	    -18.20932308	      5.70966774	      0.09965250	      6.79810452	     -0.03442727	     -7.49999987	      1.01545199	     -0.93452616	      0.44376574	     42.47721979	      6.83821193	     58.84133696	    135.74752796	    101.74969152	     50.97663757	      9.37169142	     62.93594736	    126.21159591	     87.05977769
      3.06666670	     -5.76858870	      0.18413992	     -0.15500169	     -0.12531451	      0.88243273	      0.09763825	      8.98466070	     -5.91096641	    -18.27350518	      5.92630134	      0.10343347	      0.97397879	     -2.97876590	     -7.49999987	      8.16344305	     -6.93852899	    -18.29698295	      5.65895675	      0.09876743	      6.65360056	      0.10136004	     -7.49999987	      0.89966201	     -0.96150932	      0.20464779	     42.57537449	      7.09080775	     60.17764877	    135.67877881	    101.85220680	     50.84960249	      8.88918062	     62.76570438	    126.12002451	     86.95112004
      3.08333330	     -5.96183721	      0.18606683	     -0.17195997	     -0.12931901	      0.87911617	      0.09765802	      9.37268472	     -5.91955700	    -18.22032954	      5.97967833	      0.10436508	      1.08024770	     -2.92822766	     -7.49999987	      8.57623044	     -6.93766688	    -18.26395342	      5.78923142	      0.10104115	      6.68147373	     -0.00043706	     -7.49999987	      0.69470034	     -1.01959561	      0.06590811	     42.82078198	      7.25155553	     60.90561900	    135.94685609	    101.81714022	     51.16343657	      8.73573633	     62.62786018	    125.95343656	     86.93198137
      3.10000000	     -6.23544579	      0.15652220	     -0.08806269	     -0.13043257	      0.87552408	      0.09750923	      9.93299247	     -5.94512303	    -18.00836836	      6.26503873	      0.10934555	      1.22893622	     -3.30197379	     -7.49999987	      9.11364686	     -6.97506441	    -17.89430794	      5.98046958	      0.10437888	      6.66862545	     -0.52398432	     -7.49999987	      0.54513135	     -1.01598516	     -0.03556176	     43.22566735	      7.33631606	     61.40452643	    135.70876016	     98.99197404	     51.33213717	      8.82320716	     62.65879490	    126.13918596	     84.47507901
      3.11666670	     -6.49842973	      0.17661095	     -0.05113777	     -0.13301780	      0.87520888	      0.09711267	     10.59227853	     -6.05757823	    -17.95602300	      6.78351996	      0.11839476	      1.60638093	     -3.41337655	     -7.49999987	      9.68050655	     -6.99886474	    -17.98686433	      6.25724044	      0.10920945	      6.98036972	     -0.36570639	     -7.49999987	      0.31669770	     -1.03581642	     -0.12271034	     43.38531881	      7.40926939	     61.63692582	    135.17181219	    101.03099140	     51.28696198	      8.84017286	     62.60905389	    125.99252139	     85.57910578
      3.13333330	     -6.82369791	      0.16156908	      0.07042006	     -0.13421860	      0.87194342	      0.09654434	     11.31263887	     -6.17845498	    -17.82268220	      7.42369732	      0.12956796	      1.95862197	     -3.81343313	     -7.49999987	     10.45472246	     -7.06765754	    -17.60361186	      6.76616860	      0.11809192	      7.14756445	     -1.02923459	     -7.49999987	      0.17173756	     -1.03465698	     -0.19645810	     43.50438814	      7.32593166	     61.43028031	    134.59250800	     98.01219577	     51.37936777	      8.89611262	     62.62890940	    125.98037136	     82.82911503
